<svg width="126" height="141" viewBox="0 0 126 141" fill="none" xmlns="http://www.w3.org/2000/svg">
<mask id="mask0_2009_181" style="mask-type:alpha" maskUnits="userSpaceOnUse" x="0" y="0" width="126" height="141">
<path d="M63 0C81.6667 0 96.0667 4.33334 106.2 13C116.333 21.5333 121.4 33.6 121.4 49.2C121.4 65.6 116.333 78.4 106.2 87.6C96.0667 96.6667 81.6667 101.2 63 101.2H36.6V140.2H0V0H63ZM63 72.4C70.6 72.4 76.4 70.5333 80.4 66.8C84.5333 63.0667 86.6 57.5333 86.6 50.2C86.6 43.1333 84.5333 37.8 80.4 34.2C76.4 30.6 70.6 28.8 63 28.8H36.6V72.4H63ZM56.6 87.8H92.2L125.6 140.2H84.2L56.6 87.8Z" fill="#0094C2"/>
</mask>
<g mask="url(#mask0_2009_181)">
<path d="M3.3999 0.199951H125.4V140.2H87.8999L3.3999 0.199951Z" fill="#0094C2"/>
</g>
</svg>
